<svg xmlns="http://www.w3.org/2000/svg" viewBox="350 137 30 29.662">
  <defs>
    <style>
      .cls-1 {
        fill: #7a7676;
      }
    </style>
  </defs>
  <path id="合体_6" data-name="合体 6" class="cls-1" d="M3.388,29.387.615,26.613a.952.952,0,1,1,1.346-1.346l.04.04,3.631-3.631,2.734-3.223h.163a9.926,9.926,0,0,0,9.914-9.914A9.312,9.312,0,0,0,18.28,6.7L23.421.625c.572-.653,1.387-.816,1.836-.367l4.487,4.528a1.262,1.262,0,0,1-.326,1.8L8.325,24.369,4.694,28l.04.041a.959.959,0,0,1,0,1.346.96.96,0,0,1-1.346,0ZM5.347,16.5a.863.863,0,0,0,.245-.164,1.086,1.086,0,0,0,.245-.2A.852.852,0,0,0,6,15.883c.122-.164.122-.286.082-.327-.122-.122-.449.04-.816.327a1.849,1.849,0,0,0-.408.367A8.507,8.507,0,0,1,.451,11.192a8.374,8.374,0,0,1,.694-6.936,1.7,1.7,0,0,0,.2.285c.041.122.122.164.2.245l.2.2c.122.082.245.122.285.082.122-.122,0-.49-.285-.857a2.662,2.662,0,0,0-.367-.327A8.888,8.888,0,0,1,5.8.42,8.725,8.725,0,0,1,11.385.5c-.082.163-.122.285-.082.326.082.082.327.041.612-.122a8.329,8.329,0,0,1,4.693,5.223,8.352,8.352,0,0,1-.531,6.65c-.041-.041-.081-.041-.122-.082-.122-.082-.245-.082-.285-.04-.082.081,0,.326.163.571a8.483,8.483,0,0,1-4.61,3.672,8.525,8.525,0,0,1-5.875-.2Zm.9-2.408A2.044,2.044,0,0,0,5.8,14.5c-.122.164-.245.327-.327.449a1.709,1.709,0,0,0-.082.285c.082.122.449,0,.776-.367.367-.367.49-.775.367-.857a.068.068,0,0,0-.049-.016A.5.5,0,0,0,6.244,14.088Zm.286-1.551a.9.9,0,0,0-.164.2c-.081.082-.122.163-.2.245a1.988,1.988,0,0,0-.245.53.332.332,0,0,0,0,.286c.04.04.163,0,.285-.082.041-.04.122-.082.2-.163.081-.041.122-.164.2-.245a2.18,2.18,0,0,0,.245-.571c0-.163,0-.285-.041-.327a.138.138,0,0,0-.062-.015C6.691,12.4,6.622,12.445,6.53,12.537Zm7.874-.9a.435.435,0,0,0-.041.367.864.864,0,0,0,.082.245,1.015,1.015,0,0,0,.163.285,1.489,1.489,0,0,0,.409.449c.163.122.285.122.326.082.082-.082.041-.164,0-.327a1.685,1.685,0,0,0-.285-.53c-.082-.082-.122-.164-.2-.245a.879.879,0,0,0-.163-.2c-.092-.092-.161-.138-.224-.138A.136.136,0,0,0,14.4,11.64Zm-7.956-.693a3.033,3.033,0,0,0-.285.53c-.122.448-.2.775-.082.857.082.041.163,0,.285-.122a.9.9,0,0,0,.164-.2.661.661,0,0,0,.163-.285,2.006,2.006,0,0,0,.122-.612c0-.163-.04-.245-.122-.285C6.611,10.824,6.53,10.905,6.449,10.947ZM13.3,10.7c-.082,0-.082.122-.122.245a.7.7,0,0,0,.041.285c.04.122.082.2.122.326a1.683,1.683,0,0,0,.327.531c.122.122.2.163.285.122.163-.082.04-.449-.122-.857a2.63,2.63,0,0,0-.285-.49c-.067-.1-.135-.174-.2-.174A.094.094,0,0,0,13.3,10.7Zm-1.021-.286a3.017,3.017,0,0,0,.122.327l.122.245c.122.122.2.2.286.163.041,0,.081-.122.081-.285a3.838,3.838,0,0,0-.081-.571,1.61,1.61,0,0,0-.2-.53c-.04-.122-.122-.2-.2-.2C12.242,9.559,12.16,9.968,12.282,10.416Zm-6.364-.367a3.16,3.16,0,0,0-.082.571c0,.163.041.285.122.285.163.041.367-.285.49-.734.082-.448.041-.9-.122-.9C6.2,9.274,6,9.641,5.918,10.049ZM11.467,8.5a2.662,2.662,0,0,0-.041.612c0,.122.041.2.041.326a.579.579,0,0,0,.081.245c.082.164.164.245.245.245.122,0,.2-.408.122-.857a1.9,1.9,0,0,0-.081-.571.215.215,0,0,0-.082-.164.087.087,0,0,0-.082-.081C11.589,8.254,11.507,8.335,11.467,8.5Zm-6,.163c-.041.449.04.816.2.816s.285-.327.326-.816a1.389,1.389,0,0,0-.081-.612c-.041-.163-.122-.245-.2-.245C5.551,7.8,5.469,8.213,5.469,8.662Zm5.344-1.02v.326a.6.6,0,0,0,.041.286c.04.163.081.285.163.285.163,0,.285-.367.327-.816a1.27,1.27,0,0,1,.04-.367V7.111c-.04-.122-.082-.245-.163-.245a.114.114,0,0,0-.028,0C11.04,6.863,10.891,7.18,10.814,7.642Zm-6-1.143a.247.247,0,0,0-.122.245V7.03c0,.122.04.2.04.326a1.608,1.608,0,0,0,.163.572c.082.122.122.2.2.2.041,0,.122-.082.163-.245a1.509,1.509,0,0,0,0-.612c-.077-.426-.3-.779-.429-.779A.062.062,0,0,0,4.817,6.5Zm5.671-.367c-.122.449-.122.857.04.9.082.041.122-.041.2-.245a3.38,3.38,0,0,0,.245-.531.755.755,0,0,0,.081-.285c0-.082.041-.163.041-.245,0-.163,0-.245-.082-.285a.078.078,0,0,0-.025,0C10.864,5.435,10.64,5.712,10.488,6.132ZM3.715,5.357c-.082.041-.082.163-.082.327,0,.04.04.163.04.245.041.081.041.2.082.326A2.189,2.189,0,0,0,4,6.785a.3.3,0,0,0,.245.163c.082,0,.122-.122.122-.285V6.377a.944.944,0,0,0-.082-.326A1.617,1.617,0,0,0,4,5.52c-.1-.1-.174-.173-.242-.173A.1.1,0,0,0,3.715,5.357ZM2.409,4.418c-.122.082,0,.449.2.857.245.409.49.694.612.612.081,0,.081-.122.081-.285a1.937,1.937,0,0,0-.2-.571,2.562,2.562,0,0,0-.367-.49A.522.522,0,0,0,2.472,4.4.138.138,0,0,0,2.409,4.418Zm8.364-.326a1.543,1.543,0,0,0-.367.49,1.924,1.924,0,0,0-.2.571c0,.164.04.286.081.286.164.041.408-.245.612-.653.041-.081.082-.2.122-.285s.04-.163.082-.245c.041-.122.041-.245-.041-.285A.383.383,0,0,0,10.773,4.092ZM10.61,3.031a1.685,1.685,0,0,0-.285.53.307.307,0,0,0,.04.327c.04.041.163-.04.285-.122l.2-.2a1.106,1.106,0,0,1,.2-.245,2.154,2.154,0,0,0,.286-.49c.081-.122.081-.244,0-.244a.089.089,0,0,0-.079-.036A1.162,1.162,0,0,0,10.61,3.031Zm1.02-1.877a1.433,1.433,0,0,0-.49.327l-.245.245a.828.828,0,0,0-.163.245c-.082.163-.082.285-.041.285.082.082.2.041.327-.04.082-.041.163-.122.245-.164a1.086,1.086,0,0,0,.245-.2,1.672,1.672,0,0,0,.367-.409c.082-.122.122-.245.082-.285a.173.173,0,0,0-.118-.03A.9.9,0,0,0,11.63,1.155Z" transform="translate(350 137)"/>
</svg>
