<svg xmlns="http://www.w3.org/2000/svg" viewBox="582 137 29.32 30">
  <defs>
    <style>
      .cls-1 {
        fill: #7a7676;
      }
    </style>
  </defs>
  <path id="合体_2" data-name="合体 2" class="cls-1" d="M-3993,22809l6.559-26.3a2.147,2.147,0,0,1-.665-1.551,2.14,2.14,0,0,1,2.139-2.145,2.142,2.142,0,0,1,2.146,2.145,2.139,2.139,0,0,1-1.588,2.066l-6.445,25.789Zm15.536-8.57a7.813,7.813,0,0,0-4.821-2.145c-2.3,0-4.22.715-4.707,1.672l4.17-16.668c0-1.184,2.16-2.145,4.821-2.145a7.927,7.927,0,0,1,4.821,2.117,7.781,7.781,0,0,0,4.821,2.168c2.26,0,4.156-.7,4.678-1.625l-4.142,16.625c0,1.18-2.16,2.141-4.821,2.141A7.818,7.818,0,0,1-3977.462,22800.43Z" transform="translate(4574.998 -22642)"/>
</svg>
