<svg xmlns="http://www.w3.org/2000/svg" viewBox="270 137 21.423 30">
  <defs>
    <style>
      .cls-1 {
        fill: #7a7676;
      }
    </style>
  </defs>
  <path id="合体_1" data-name="合体 1" class="cls-1" d="M-3975.859,22806.852v-10.707H-3979c-.05-.7-.071-1.414-.071-2.145,0-8.281,3.119-15,6.959-15a3.1,3.1,0,0,1,.537.043v27.809a2.144,2.144,0,0,1-2.139,2.148A2.145,2.145,0,0,1-3975.859,22806.852Zm-13.927,0v-13.117c-1.9-.5-3.212-1.633-3.212-2.945v-10.715h.015a1.066,1.066,0,0,1,1.065-1.074,1.065,1.065,0,0,1,1.059,1.074v8.566a1.073,1.073,0,0,0,1.073,1.074,1.073,1.073,0,0,0,1.073-1.074v-8.566h.007a1.065,1.065,0,0,1,1.059-1.074,1.066,1.066,0,0,1,1.066,1.074h.007v8.566a1.073,1.073,0,0,0,1.073,1.074,1.073,1.073,0,0,0,1.073-1.074v-8.566h.007a1.071,1.071,0,0,1,1.066-1.074,1.065,1.065,0,0,1,1.059,1.074h.007v10.715c0,1.313-1.316,2.445-3.211,2.945v13.117a2.145,2.145,0,0,1-2.146,2.148A2.143,2.143,0,0,1-3989.786,22806.852Z" transform="translate(4262.998 -22642)"/>
</svg>
