<svg xmlns="http://www.w3.org/2000/svg" viewBox="191 137 30 30.395">
  <defs>
    <style>
      .cls-1 {
        fill: #7a7676;
      }
    </style>
  </defs>
  <path id="合体_5" data-name="合体 5" class="cls-1" d="M8.323,30.395a3.039,3.039,0,1,1,0-6.078h2.532a3.9,3.9,0,0,1-.084-.76,3.544,3.544,0,0,1,3.545-3.545,3.381,3.381,0,0,1,1.232.22,4.308,4.308,0,0,1,8.56.692,2.711,2.711,0,0,1-.017.372h.033A2.734,2.734,0,0,1,26.86,24.03a1.614,1.614,0,0,1-.017.287h.119a3.039,3.039,0,0,1,0,6.078Zm.835-11.01V16.43h1.068v2.955Zm4.915-4.551.756-.755,2.09,2.089-.756.756ZM2.462,16.163l2.09-2.089.755.756L3.217,16.919ZM4.485,9.578a5.051,5.051,0,1,1,5.051,5.05A5.051,5.051,0,0,1,4.485,9.578Zm11.946.649V9.158h2.955v1.068ZM0,10.227V9.158H2.955v1.068ZM14.079,4.556l2.089-2.09.756.756-2.09,2.09ZM2.466,3.217l.756-.756,2.09,2.09-.756.756Zm6.692-.263V0h1.068V2.955Z" transform="translate(191 137)"/>
</svg>
