<svg xmlns="http://www.w3.org/2000/svg" viewBox="521 137 24.75 30">
  <defs>
    <style>
      .cls-1 {
        fill: #7a7676;
      }
    </style>
  </defs>
  <path id="パス_11" data-name="パス 11" class="cls-1" d="M22.271,0V26.584a.966.966,0,0,1-.976.976H9.7a.966.966,0,0,1-.976-.976V20.007h.9V17.8h2.791l1.737-7.866h.332a.546.546,0,0,0,.547-.547V7.846a.546.546,0,0,0-.547-.547H11.594V.742a.742.742,0,1,0-1.483,0V7.28H4.9V.742a.742.742,0,1,0-1.483,0V7.28H.547A.546.546,0,0,0,0,7.827V9.369a.546.546,0,0,0,.547.547H.878l1.737,7.866H5.407v2.206h.878v6.578A3.44,3.44,0,0,0,9.72,30H21.314a3.44,3.44,0,0,0,3.435-3.435V0Z" transform="translate(521 137)"/>
</svg>
