<svg xmlns="http://www.w3.org/2000/svg" viewBox="124 137 30 30">
  <defs>
    <style>
      .cls-1 {
        fill: #7a7676;
      }
    </style>
  </defs>
  <path id="パス_10" data-name="パス 10" class="cls-1" d="M15,0A15,15,0,1,0,30,15,14.988,14.988,0,0,0,15,0ZM6.2,12.906a1.629,1.629,0,1,1,1.629,1.629A1.616,1.616,0,0,1,6.2,12.906ZM15,24.436a8.9,8.9,0,0,1-8.082-5.183H8.357a7.579,7.579,0,0,0,13.244,0h1.439A8.829,8.829,0,0,1,15,24.436Zm7.172-9.9A1.629,1.629,0,1,1,23.8,12.905,1.616,1.616,0,0,1,22.172,14.535Z" transform="translate(124 137)"/>
</svg>
